<svg width="92" height="40" viewBox="0 0 92 40" fill="none" xmlns="http://www.w3.org/2000/svg">
<path d="M0 8C0 3.58172 3.58172 0 8 0H84C88.4183 0 92 3.58172 92 8V32C92 36.4183 88.4183 40 84 40H8C3.58172 40 0 36.4183 0 32V8Z" fill="#D9D9D9"/>
<path d="M22.7727 18H21.3636C21.2803 17.5947 21.1345 17.2386 20.9261 16.9318C20.7216 16.625 20.4716 16.3674 20.1761 16.1591C19.8845 15.947 19.5606 15.7879 19.2045 15.6818C18.8485 15.5758 18.4773 15.5227 18.0909 15.5227C17.3864 15.5227 16.7481 15.7008 16.1761 16.0568C15.608 16.4129 15.1553 16.9375 14.8182 17.6307C14.4848 18.3239 14.3182 19.1742 14.3182 20.1818C14.3182 21.1894 14.4848 22.0398 14.8182 22.733C15.1553 23.4261 15.608 23.9508 16.1761 24.3068C16.7481 24.6629 17.3864 24.8409 18.0909 24.8409C18.4773 24.8409 18.8485 24.7879 19.2045 24.6818C19.5606 24.5758 19.8845 24.4186 20.1761 24.2102C20.4716 23.9981 20.7216 23.7386 20.9261 23.4318C21.1345 23.1212 21.2803 22.7652 21.3636 22.3636H22.7727C22.6667 22.9583 22.4735 23.4905 22.1932 23.9602C21.9129 24.4299 21.5644 24.8295 21.1477 25.1591C20.7311 25.4848 20.2633 25.733 19.7443 25.9034C19.2292 26.0739 18.678 26.1591 18.0909 26.1591C17.0985 26.1591 16.2159 25.9167 15.4432 25.4318C14.6705 24.947 14.0625 24.2576 13.6193 23.3636C13.1761 22.4697 12.9545 21.4091 12.9545 20.1818C12.9545 18.9545 13.1761 17.8939 13.6193 17C14.0625 16.1061 14.6705 15.4167 15.4432 14.9318C16.2159 14.447 17.0985 14.2045 18.0909 14.2045C18.678 14.2045 19.2292 14.2898 19.7443 14.4602C20.2633 14.6307 20.7311 14.8807 21.1477 15.2102C21.5644 15.536 21.9129 15.9337 22.1932 16.4034C22.4735 16.8693 22.6667 17.4015 22.7727 18ZM28.4134 26.1818C27.6255 26.1818 26.9342 25.9943 26.3395 25.6193C25.7486 25.2443 25.2865 24.7197 24.9531 24.0455C24.6236 23.3712 24.4588 22.5833 24.4588 21.6818C24.4588 20.7727 24.6236 19.9792 24.9531 19.3011C25.2865 18.6231 25.7486 18.0966 26.3395 17.7216C26.9342 17.3466 27.6255 17.1591 28.4134 17.1591C29.2012 17.1591 29.8906 17.3466 30.4815 17.7216C31.0762 18.0966 31.5384 18.6231 31.8679 19.3011C32.2012 19.9792 32.3679 20.7727 32.3679 21.6818C32.3679 22.5833 32.2012 23.3712 31.8679 24.0455C31.5384 24.7197 31.0762 25.2443 30.4815 25.6193C29.8906 25.9943 29.2012 26.1818 28.4134 26.1818ZM28.4134 24.9773C29.0118 24.9773 29.5043 24.8239 29.8906 24.517C30.277 24.2102 30.563 23.8068 30.7486 23.3068C30.9342 22.8068 31.027 22.2652 31.027 21.6818C31.027 21.0985 30.9342 20.5549 30.7486 20.0511C30.563 19.5473 30.277 19.1402 29.8906 18.8295C29.5043 18.5189 29.0118 18.3636 28.4134 18.3636C27.8149 18.3636 27.3224 18.5189 26.9361 18.8295C26.5497 19.1402 26.2637 19.5473 26.0781 20.0511C25.8925 20.5549 25.7997 21.0985 25.7997 21.6818C25.7997 22.2652 25.8925 22.8068 26.0781 23.3068C26.2637 23.8068 26.5497 24.2102 26.9361 24.517C27.3224 24.8239 27.8149 24.9773 28.4134 24.9773ZM35.7557 20.75V26H34.4148V17.2727H35.7102V18.6364H35.8239C36.0284 18.1932 36.339 17.8371 36.7557 17.5682C37.1723 17.2955 37.7102 17.1591 38.3693 17.1591C38.9602 17.1591 39.4773 17.2803 39.9205 17.5227C40.3636 17.7614 40.7083 18.125 40.9545 18.6136C41.2008 19.0985 41.3239 19.7121 41.3239 20.4545V26H39.983V20.5455C39.983 19.8598 39.8049 19.3258 39.4489 18.9432C39.0928 18.5568 38.6042 18.3636 37.983 18.3636C37.5549 18.3636 37.1723 18.4564 36.8352 18.642C36.5019 18.8277 36.2386 19.0985 36.0455 19.4545C35.8523 19.8106 35.7557 20.2424 35.7557 20.75ZM47.5696 17.2727V18.4091H43.0469V17.2727H47.5696ZM44.3651 15.1818H45.706V23.5C45.706 23.8788 45.7609 24.1629 45.8707 24.3523C45.9844 24.5379 46.1283 24.6629 46.3026 24.7273C46.4806 24.7879 46.6681 24.8182 46.8651 24.8182C47.0128 24.8182 47.134 24.8106 47.2287 24.7955C47.3234 24.7765 47.3991 24.7614 47.456 24.75L47.7287 25.9545C47.6378 25.9886 47.5109 26.0227 47.348 26.0568C47.1851 26.0947 46.9787 26.1136 46.7287 26.1136C46.3499 26.1136 45.9787 26.0322 45.6151 25.8693C45.2552 25.7064 44.956 25.4583 44.7173 25.125C44.4825 24.7917 44.3651 24.3712 44.3651 23.8636V15.1818ZM49.5866 26V17.2727H50.9276V26H49.5866ZM50.2685 15.8182C50.0071 15.8182 49.7817 15.7292 49.5923 15.5511C49.4067 15.3731 49.3139 15.1591 49.3139 14.9091C49.3139 14.6591 49.4067 14.4451 49.5923 14.267C49.7817 14.089 50.0071 14 50.2685 14C50.5298 14 50.7533 14.089 50.9389 14.267C51.1283 14.4451 51.223 14.6591 51.223 14.9091C51.223 15.1591 51.1283 15.3731 50.9389 15.5511C50.7533 15.7292 50.5298 15.8182 50.2685 15.8182ZM54.7244 20.75V26H53.3835V17.2727H54.679V18.6364H54.7926C54.9972 18.1932 55.3078 17.8371 55.7244 17.5682C56.1411 17.2955 56.679 17.1591 57.3381 17.1591C57.929 17.1591 58.446 17.2803 58.8892 17.5227C59.3324 17.7614 59.6771 18.125 59.9233 18.6136C60.1695 19.0985 60.2926 19.7121 60.2926 20.4545V26H58.9517V20.5455C58.9517 19.8598 58.7737 19.3258 58.4176 18.9432C58.0616 18.5568 57.5729 18.3636 56.9517 18.3636C56.5237 18.3636 56.1411 18.4564 55.804 18.642C55.4706 18.8277 55.2074 19.0985 55.0142 19.4545C54.821 19.8106 54.7244 20.2424 54.7244 20.75ZM68.2429 22.4318V17.2727H69.5838V26H68.2429V24.5227H68.152C67.9474 24.9659 67.6293 25.3428 67.1974 25.6534C66.7656 25.9602 66.2202 26.1136 65.5611 26.1136C65.0156 26.1136 64.5308 25.9943 64.1065 25.7557C63.6823 25.5133 63.349 25.1496 63.1065 24.6648C62.8641 24.1761 62.7429 23.5606 62.7429 22.8182V17.2727H64.0838V22.7273C64.0838 23.3636 64.2618 23.8712 64.6179 24.25C64.9777 24.6288 65.4361 24.8182 65.9929 24.8182C66.3262 24.8182 66.6652 24.733 67.0099 24.5625C67.3584 24.392 67.6501 24.1307 67.8849 23.7784C68.1236 23.4261 68.2429 22.9773 68.2429 22.4318ZM74.608 26.2045C74.0549 26.2045 73.553 26.1004 73.1023 25.892C72.6515 25.6799 72.2936 25.375 72.0284 24.9773C71.7633 24.5758 71.6307 24.0909 71.6307 23.5227C71.6307 23.0227 71.7292 22.6174 71.9261 22.3068C72.1231 21.9924 72.3864 21.7462 72.7159 21.5682C73.0455 21.3902 73.4091 21.2576 73.8068 21.1705C74.2083 21.0795 74.6117 21.0076 75.017 20.9545C75.5473 20.8864 75.9773 20.8352 76.3068 20.8011C76.6402 20.7633 76.8826 20.7008 77.0341 20.6136C77.1894 20.5265 77.267 20.375 77.267 20.1591V20.1136C77.267 19.553 77.1136 19.1174 76.8068 18.8068C76.5038 18.4962 76.0436 18.3409 75.4261 18.3409C74.786 18.3409 74.2841 18.4811 73.9205 18.7614C73.5568 19.0417 73.3011 19.3409 73.1534 19.6591L71.8807 19.2045C72.108 18.6742 72.411 18.2614 72.7898 17.9659C73.1723 17.6667 73.589 17.4583 74.0398 17.3409C74.4943 17.2197 74.9413 17.1591 75.3807 17.1591C75.661 17.1591 75.983 17.1932 76.3466 17.2614C76.714 17.3258 77.0682 17.4602 77.4091 17.6648C77.7538 17.8693 78.0398 18.178 78.267 18.5909C78.4943 19.0038 78.608 19.5568 78.608 20.25V26H77.267V24.8182H77.1989C77.108 25.0076 76.9564 25.2102 76.7443 25.4261C76.5322 25.642 76.25 25.8258 75.8977 25.9773C75.5455 26.1288 75.1155 26.2045 74.608 26.2045ZM74.8125 25C75.3428 25 75.7898 24.8958 76.1534 24.6875C76.5208 24.4792 76.7973 24.2102 76.983 23.8807C77.1723 23.5511 77.267 23.2045 77.267 22.8409V21.6136C77.2102 21.6818 77.0852 21.7443 76.892 21.8011C76.7027 21.8542 76.483 21.9015 76.233 21.9432C75.9867 21.9811 75.7462 22.0152 75.5114 22.0455C75.2803 22.072 75.0928 22.0947 74.9489 22.1136C74.6004 22.1591 74.2746 22.233 73.9716 22.3352C73.6723 22.4337 73.4299 22.5833 73.2443 22.7841C73.0625 22.9811 72.9716 23.25 72.9716 23.5909C72.9716 24.0568 73.1439 24.4091 73.4886 24.6477C73.8371 24.8826 74.2784 25 74.8125 25Z" fill="#222222"/>
</svg>
