<svg width="78" height="78" viewBox="0 0 78 78" fill="none" xmlns="http://www.w3.org/2000/svg">
<rect width="78" height="78" rx="39" fill="#DA373C"/>
<path d="M38.7175 30.9141C32.9931 30.9141 28.6937 32.2378 25.7819 33.6009C22.5906 35.0953 21.1562 38.5359 21.1562 42.0609V43.2778C21.1562 44.0237 21.4526 44.7391 21.98 45.2666C22.5075 45.794 23.2228 46.0903 23.9688 46.0903H27.0156C27.7615 46.0903 28.4769 45.794 29.0044 45.2666C29.5318 44.7391 29.8281 44.0237 29.8281 43.2778V42.2522C29.8281 41.2576 30.2232 40.3038 30.9265 39.6005C31.6297 38.8973 32.5836 38.5022 33.5781 38.5022H43.4219C44.4164 38.5022 45.3703 38.8973 46.0735 39.6005C46.7768 40.3038 47.1719 41.2576 47.1719 42.2522V43.2778C47.1719 44.0237 47.4682 44.7391 47.9956 45.2666C48.5231 45.794 49.2385 46.0903 49.9844 46.0903H53.0312C53.7772 46.0903 54.4925 45.794 55.02 45.2666C55.5474 44.7391 55.8438 44.0237 55.8438 43.2778V41.7591C55.8438 38.4141 54.5481 35.1272 51.5444 33.6497C48.7394 32.2697 44.5094 30.9141 38.7175 30.9141Z" fill="white" stroke="white"/>
</svg>
