<svg width="135" height="122" viewBox="0 0 135 122" fill="none" xmlns="http://www.w3.org/2000/svg">
<g opacity="0.5">
<path d="M67.5 111.835C98.566 111.835 123.75 89.0758 123.75 61.0013C123.75 32.9268 98.566 10.168 67.5 10.168C36.434 10.168 11.25 32.9268 11.25 61.0013C11.25 89.0758 36.434 111.835 67.5 111.835Z" fill="#EBB084" fill-opacity="0.6"/>
<path d="M84.375 45.7513L50.625 76.2513M50.625 45.7513L84.375 76.2513M123.75 61.0013C123.75 89.0758 98.566 111.835 67.5 111.835C36.434 111.835 11.25 89.0758 11.25 61.0013C11.25 32.9268 36.434 10.168 67.5 10.168C98.566 10.168 123.75 32.9268 123.75 61.0013Z" stroke="#292929" stroke-width="10" stroke-linecap="round" stroke-linejoin="round"/>
</g>
</svg>
